<?xml version="1.0" encoding="utf-8"?>
<!-- Generator: Adobe Illustrator 16.0.3, SVG Export Plug-In . SVG Version: 6.00 Build 0)  -->
<!DOCTYPE svg PUBLIC "-//W3C//DTD SVG 1.1//EN" "http://www.w3.org/Graphics/SVG/1.1/DTD/svg11.dtd">
<svg version="1.1" id="Layer_1" xmlns="http://www.w3.org/2000/svg" xmlns:xlink="http://www.w3.org/1999/xlink" x="0px" y="0px"
	 width="13.68px" height="13.68px" viewBox="303.147 390.794 13.68 13.68" enable-background="new 303.147 390.794 13.68 13.68"
	 xml:space="preserve">
<g>
	<g>
		<path fill-rule="evenodd" clip-rule="evenodd" fill="#9D9D9D" d="M315.991,397.636c0,1.124-0.001,2.246,0.001,3.37
			c0,0.07-0.023,0.104-0.081,0.139c-1.649,0.949-3.297,1.898-4.944,2.85c-0.302,0.174-0.604,0.348-0.903,0.523
			c-0.053,0.031-0.092,0.035-0.147,0.004c-1.396-0.809-2.792-1.615-4.189-2.422c-0.552-0.318-1.104-0.638-1.658-0.954
			c-0.06-0.033-0.087-0.068-0.086-0.143c0.002-2.248,0.002-4.494,0-6.741c0-0.068,0.018-0.106,0.078-0.141
			c1.946-1.12,3.891-2.241,5.834-3.365c0.066-0.038,0.113-0.042,0.182-0.002c1.946,1.125,3.894,2.248,5.841,3.37
			c0.057,0.032,0.075,0.069,0.075,0.134C315.99,395.383,315.991,396.51,315.991,397.636z M315.209,397.634
			c0-0.977-0.001-1.954,0.003-2.932c0-0.063-0.021-0.095-0.075-0.125c-0.226-0.126-0.448-0.258-0.673-0.388
			c-0.839-0.484-1.678-0.967-2.517-1.452c-0.629-0.362-1.259-0.724-1.886-1.088c-0.054-0.031-0.096-0.033-0.148,0
			c-0.099,0.061-0.201,0.116-0.301,0.174c-1.597,0.92-3.192,1.842-4.789,2.762c-0.042,0.024-0.059,0.051-0.059,0.102
			c0.001,1.962,0.001,3.925-0.001,5.888c0,0.06,0.025,0.085,0.071,0.111c0.797,0.459,1.594,0.919,2.39,1.378
			c0.896,0.517,1.79,1.032,2.685,1.549c0.057,0.033,0.1,0.033,0.156,0.002c0.712-0.414,1.425-0.823,2.138-1.235
			c0.977-0.563,1.953-1.128,2.931-1.689c0.057-0.032,0.078-0.065,0.078-0.131C315.208,399.584,315.209,398.609,315.209,397.634z"/>
		<path fill-rule="evenodd" clip-rule="evenodd" fill="#9D9D9D" d="M314.023,397.637c0,0.746-0.001,1.494,0.001,2.241
			c0,0.058-0.015,0.09-0.067,0.12c-0.979,0.562-1.953,1.126-2.931,1.69c-0.329,0.19-0.657,0.381-0.989,0.567
			c-0.025,0.015-0.074,0.015-0.1,0c-0.952-0.546-1.903-1.097-2.854-1.645c-0.354-0.205-0.71-0.411-1.066-0.614
			c-0.047-0.026-0.069-0.054-0.069-0.111c0.002-1.503,0.002-3.005,0-4.507c0-0.052,0.014-0.081,0.062-0.108
			c0.982-0.565,1.962-1.132,2.943-1.698c0.327-0.189,0.654-0.378,0.983-0.564c0.025-0.015,0.074-0.015,0.1,0
			c0.952,0.547,1.903,1.096,2.854,1.645c0.354,0.205,0.71,0.411,1.066,0.613c0.053,0.03,0.067,0.062,0.067,0.12
			C314.022,396.137,314.023,396.887,314.023,397.637z M306.732,397.624c0,0.601,0.001,1.202-0.002,1.803
			c0,0.059,0.018,0.092,0.069,0.121c1.045,0.601,2.09,1.203,3.132,1.808c0.041,0.022,0.069,0.023,0.11,0
			c1.044-0.604,2.087-1.207,3.132-1.807c0.052-0.03,0.07-0.062,0.069-0.122c-0.001-1.196-0.001-2.393,0-3.589
			c0-0.059-0.017-0.092-0.068-0.122c-1.045-0.601-2.089-1.204-3.132-1.807c-0.041-0.023-0.07-0.023-0.11,0
			c-1.043,0.604-2.087,1.206-3.132,1.808c-0.052,0.029-0.07,0.062-0.07,0.121C306.733,396.432,306.732,397.028,306.732,397.624z"/>
		<path fill-rule="evenodd" clip-rule="evenodd" fill="#9D9D9D" d="M308.232,397.387c0.55,0.334,1.068,0.146,1.348-0.133
			c0.291-0.29,0.445-0.814,0.141-1.329c0.466-0.114,1.303,0.083,1.747,0.811c0.437,0.715,0.318,1.626-0.281,2.199
			c-0.601,0.573-1.511,0.653-2.203,0.191C308.303,398.673,308.116,397.877,308.232,397.387z"/>
	</g>
</g>
</svg>
