<?xml version="1.0" encoding="UTF-8" standalone="no"?>
<svg width="14px" height="14px" viewBox="0 0 14 14" version="1.1" xmlns="http://www.w3.org/2000/svg" xmlns:xlink="http://www.w3.org/1999/xlink" xmlns:sketch="http://www.bohemiancoding.com/sketch/ns">
    <!-- Generator: Sketch 3.3.3 (12081) - http://www.bohemiancoding.com/sketch -->
    <title>Slice 1</title>
    <desc>Created with Sketch.</desc>
    <defs></defs>
    <g id="Page-1" stroke="none" stroke-width="1" fill="none" fill-rule="evenodd" sketch:type="MSPage">
        <path d="M11.9560547,0 L2.04394531,0 C0.916015625,0 0,0.916015625 0,2.04394531 L0,11.9560547 C0,13.0839844 0.916015625,14 2.04394531,14 L11.9560547,14 C13.0839844,14 14,13.0839844 14,11.9560547 L14,2.04394531 C14,0.916015625 13.0839844,0 11.9560547,0 L11.9560547,0 Z M7,4.375 C8.44921875,4.375 9.625,5.55078125 9.625,7 C9.625,8.44921875 8.44921875,9.625 7,9.625 C5.55078125,9.625 4.375,8.44921875 4.375,7 C4.375,5.55078125 5.55078125,4.375 7,4.375 L7,4.375 Z M12.5439453,12.25 C12.5439453,12.4140625 12.4140625,12.5439453 12.25,12.5439453 L1.75,12.5439453 C1.5859375,12.5439453 1.45605469,12.4140625 1.45605469,12.25 L1.45605469,6.125 L3.0078125,6.125 C2.94628906,6.40527344 2.91894531,6.69921875 2.91894531,7 C2.91894531,9.25585938 4.74414062,11.0810547 7,11.0810547 C9.25585938,11.0810547 11.0810547,9.25585938 11.0810547,7 C11.0810547,6.69921875 11.0537109,6.40527344 10.9921875,6.125 L12.5439453,6.125 L12.5439453,12.25 Z M12.5439453,3.5 C12.5439453,3.6640625 12.4140625,3.79394531 12.25,3.79394531 L10.5,3.79394531 C10.3359375,3.79394531 10.2060547,3.6640625 10.2060547,3.5 L10.2060547,1.75 C10.2060547,1.5859375 10.3359375,1.45605469 10.5,1.45605469 L12.25,1.45605469 C12.4140625,1.45605469 12.5439453,1.5859375 12.5439453,1.75 L12.5439453,3.5 Z" id="instagram" fill="#A09C98" sketch:type="MSShapeGroup"></path>
    </g>
</svg>