<?xml version="1.0" encoding="utf-8"?>
<!-- Generator: Adobe Illustrator 16.0.3, SVG Export Plug-In . SVG Version: 6.00 Build 0)  -->
<!DOCTYPE svg PUBLIC "-//W3C//DTD SVG 1.1//EN" "http://www.w3.org/Graphics/SVG/1.1/DTD/svg11.dtd">
<svg version="1.1" id="Layer_1" xmlns="http://www.w3.org/2000/svg" xmlns:xlink="http://www.w3.org/1999/xlink" x="0px" y="0px"
	 width="13.68px" height="13.68px" viewBox="303.147 390.794 13.68 13.68" enable-background="new 303.147 390.794 13.68 13.68"
	 xml:space="preserve">
<g>
	<g>
		<path fill-rule="evenodd" clip-rule="evenodd" fill="#9D9D9D" d="M303.833,395.703c-0.213-0.275-0.393-0.506-0.665-0.856
			c1.138-0.915,2.216-1.881,3.402-2.698c0.888-0.612,1.86-0.279,2.213,0.744c0.337,0.977,0.452,2.032,0.686,3.047
			c0.206,0.906,0.385,1.825,0.679,2.704c0.285,0.846,0.708,0.911,1.238,0.205c0.476-0.632,0.879-1.324,1.258-2.021
			c0.31-0.567,0.594-1.286,0.098-1.781c-0.322-0.321-0.998-0.291-1.543-0.424c0.149-1.809,2.396-3.359,4.278-2.807
			c0.685,0.201,1.058,0.667,1.235,1.327c0.294,1.091,0.101,2.135-0.371,3.121c-1.161,2.428-2.719,4.582-4.78,6.321
			c-1.983,1.672-3.49,1.189-4.245-1.31c-0.399-1.328-0.724-2.677-1.102-4.011c-0.136-0.479-0.298-0.956-0.511-1.405
			c-0.412-0.868-0.666-0.928-1.456-0.424C304.132,395.506,304.019,395.581,303.833,395.703z"/>
	</g>
</g>
</svg>
